<svg width="100%" height="100%" viewBox="0 0 1280 1280" version="1.1" xmlns="http://www.w3.org/2000/svg" xmlns:xlink="http://www.w3.org/1999/xlink" xml:space="preserve" xmlns:serif="http://www.serif.com/" style="fill-rule:evenodd;clip-rule:evenodd;stroke-linejoin:round;stroke-miterlimit:2;"><g transform="matrix(2,0,0,2,0,0)"><g id="background" transform="matrix(20,0,0,20,0,0)"><rect x="0" y="0" width="32" height="32" style="fill:#E6DCD8;"/></g>
<g id="meshs" transform="matrix(18.4802,0,0,19.5673,-0.484754,14.4742)"><g id="monster" transform="matrix(1.08224,0,0,1.02212,1.10847,-0.739717)">
            <path id="color4" serif:id="color" d="M10,32L10,19L8,19L8,15L10,15L10,9L11,9L11,8L21,8L21,9L22,9L22,27L21,27L21,28L16,28L16,32L10,32Z" style="fill:#7D7542;"/>
            <g transform="matrix(0.05,0,0,0.05,-1,0)">
                <path d="M280,180L280,520L300,520L300,540L320,540L320,580L280,580L280,640L220,640L220,380L180,380L180,300L220,300L220,180L280,180Z" style="fill-opacity:0.14;"/>
            </g>
            <path d="M9,32L9,20L7,20L7,14L9,14L9,8L10,8L10,7L22,7L22,8L23,8L23,27L22,27L22,28L21,28L21,29L17,29L17,32L16,32L16,29L13,29L13,28L12,28L12,27L13,27L13,28L21,28L21,27L22,27L22,10L21,10L21,9L20,9L20,10L19,10L19,9L18,9L18,10L17,10L17,9L16,9L16,10L15,10L15,9L14,9L14,10L13,10L13,9L12,9L12,10L11,10L11,9L10,9L10,16L9,16L9,15L8,15L8,19L10,19L10,32L9,32Z"/>
            <path d="M10,28L10,29L9,29L9,30L8,30L8,27L9,27L9,28L10,28Z" style="fill:rgb(244,243,96);"/>
            <g transform="matrix(1.25,0,0,1,-5,0)">
                <rect x="16" y="24" width="4" height="1" style="fill:rgb(5,0,0);"/>
            </g>
            <rect x="17" y="20" width="3" height="1"/>
            <g transform="matrix(0.923077,0,0,1,2,0)">
                <rect x="13" y="16" width="1.083" height="0.963"/>
            </g>
            <g transform="matrix(0.923077,0,0,1,9,0)">
                <rect x="13" y="16" width="1.083" height="0.963"/>
            </g>
            <g transform="matrix(1,0,0,1,1,0)">
                <rect x="12" y="16" width="1" height="0.963" style="fill:white;"/>
            </g>
            <g transform="matrix(1,0,0,1,8,0)">
                <rect x="12" y="16" width="1" height="0.963" style="fill:white;"/>
            </g>
            <g transform="matrix(4.5,0,0,1,-41,0)">
                <rect x="12" y="15" width="2" height="1"/>
            </g>
            <g transform="matrix(2.5,0,0,1,-15,1)">
                <rect x="12" y="15" width="2" height="1" style="fill-opacity:0.31;"/>
            </g>
        </g></g><g id="accessoiries" transform="matrix(22.5744,0,0,15.0513,-20.6845,82.9368)"><g id="mutze" transform="matrix(0.0675016,0,0,0.066253,-107.552,-128.395)">
            <path id="color8" serif:id="color" d="M1738.14,2015.23L1751.27,2015.23L1751.27,1995.17L1764.39,1995.17L1764.39,1975.11L1895.64,1975.11L1895.64,1995.17L1908.77,1995.17L1908.77,2015.23L1921.89,2015.23L1921.89,2075.39L1738.14,2075.39L1738.14,2015.23Z" style="fill:#4F1BBF;"/>
            <path d="M1908.77,1995.17L1908.77,2015.23L1882.52,2015.23L1882.52,2075.39L1869.39,2075.39L1869.39,2015.23L1843.14,2015.23L1843.14,2075.39L1830.02,2075.39L1830.02,2015.23L1803.77,2015.23L1803.77,2075.39L1790.64,2075.39L1790.64,2015.23L1751.27,2015.23L1751.27,2075.39L1738.14,2075.39L1738.14,2015.23L1751.27,2015.23L1751.27,1995.17L1908.77,1995.17Z" style="fill-opacity:0.23;"/>
            <path d="M1935.02,2075.39L1921.89,2075.39L1921.89,2015.23L1908.77,2015.23L1908.77,1995.17L1895.64,1995.17L1895.64,1975.11L1908.77,1975.11L1908.77,1995.17L1921.89,1995.17L1921.89,2015.23L1935.02,2015.23L1935.02,2075.39ZM1803.77,1935L1856.27,1935L1856.27,1955.06L1895.64,1955.06L1895.64,1975.11L1764.39,1975.11L1764.39,1995.17L1751.27,1995.17L1751.27,1975.11L1764.39,1975.11L1764.39,1955.06L1803.77,1955.06L1803.77,1935ZM1725.02,2015.23L1738.14,2015.23L1738.14,1995.17L1751.27,1995.17L1751.27,2015.23L1738.14,2015.23L1738.14,2075.39L1725.02,2075.39L1725.02,2015.23Z"/>
            <g id="color9" serif:id="color" transform="matrix(1,0,0,1,0,20.0563)">
                <rect x="1816.89" y="1935" width="26.25" height="20.056" style="fill:#4F1BBF;"/>
            </g>
        </g></g>
		<g transform="matrix(1.55556,0,0,1.38272,-4746.67,-2484.46)">
			<g id="bart"><path d="M3192.86,2129.47L3205.72,2129.47L3205.71,2143.94L3244.29,2143.94L3244.29,2129.47L3270,2130.01L3270,2115.01L3321.43,2115.01L3321.43,2129.47L3334.29,2129.47L3334.29,2143.94L3360,2143.94L3360,2201.8L3347.14,2201.8L3347.14,2216.26L3334.29,2216.26L3334.29,2230.72L3321.43,2230.72L3321.43,2245.19L3257.14,2245.19L3257.14,2230.72L3244.29,2230.72L3244.29,2216.26L3231.43,2216.26L3231.43,2201.8L3205.71,2201.8L3205.71,2187.33L3192.86,2187.33L3192.86,2129.47Z" style="fill:black;"/></g>
        </g>
	<g id="glases" transform="matrix(14.9706,0,0,15,90.1646,180)"><g id="checker" transform="matrix(1.14094,0,0,1,-1.31784,-2)">
            <path d="M7.585,10L23.978,10L23.978,11.333L22.807,11.333L22.807,12.667L21.636,12.667L21.636,14L18.124,14L18.124,12.667L16.953,12.667L16.953,11.333L15.782,11.333L15.782,12.667L14.611,12.667L14.611,14L11.098,14L11.098,12.667L9.927,12.667L9.927,11.333L7.585,11.333L7.585,10Z"/>
            <g transform="matrix(1.21429,0,0,0.666667,-2.71429,4)">
                <rect x="13.304" y="11" width="0.964" height="2" style="fill:white;"/>
            </g>
            <g transform="matrix(1.21429,0,0,0.666667,-5.14286,4)">
                <rect x="21.089" y="11" width="0.964" height="2" style="fill:white;"/>
            </g>
            </g></g></g></svg>