<svg width="100%" height="100%" viewBox="0 0 1280 1280" version="1.1" xmlns="http://www.w3.org/2000/svg" xmlns:xlink="http://www.w3.org/1999/xlink" xml:space="preserve" xmlns:serif="http://www.serif.com/" style="fill-rule:evenodd;clip-rule:evenodd;stroke-linejoin:round;stroke-miterlimit:2;"><g transform="matrix(2,0,0,2,0,0)"><g id="background" transform="matrix(20,0,0,20,0,0)"><rect x="0" y="0" width="32" height="32" style="fill:#D8E6E3;"/></g>
<g id="meshs" transform="matrix(18.4802,0,0,19.5673,-0.484754,14.4742)"><g id="weibl" transform="matrix(0.0216093,0,0,0.0194683,17.9577,18.8801)">
        <g id="color6" serif:id="color" transform="matrix(4.16667,0,0,4.16667,-24077.7,-5827.81)">
            <path d="M5783.82,1560.02L5711.7,1560.02L5711.7,1421.42L5699.68,1421.42L5699.68,1358.41L5711.7,1358.41L5711.7,1282.81L5723.72,1282.81L5723.72,1270.21L5855.94,1270.21L5855.94,1282.81L5867.96,1282.81L5867.96,1484.42L5855.94,1484.42L5855.94,1497.02L5819.88,1497.02L5819.88,1509.62L5783.82,1509.62L5783.82,1560.02Z" style="fill:#B17E61"/>
        </g>
        <g transform="matrix(4.16667,0,0,4.16667,-24127.7,-5880.31)">
            <rect x="5843.92" y="1383.61" width="12.02" height="12.6" style="fill:rgb(108,175,182);"/>
        </g>
        <g transform="matrix(3.33881,0,0,4.16667,-19209.9,-5827.81)">
            <path d="M5834.98,1282.81L5834.98,1270.21L5849.98,1270.21L5849.98,1282.81L5864.98,1282.81L5864.98,1484.42L5849.98,1484.42L5849.98,1282.81L5834.98,1282.81Z"/>
        </g>
        <g transform="matrix(4.16667,0,0,4.16667,-24077.7,-5827.81)">
            <path d="M5711.7,1408.82L5711.7,1560.02L5699.98,1560.02L5699.68,1421.42L5687.66,1421.42L5687.66,1408.82L5711.7,1408.82Z"/>
        </g>
        <g transform="matrix(4.16667,0,0,4.16667,-24077.7,-5827.81)">
            <rect x="5687.66" y="1358.41" width="12.02" height="50.402"/>
        </g>
        <g transform="matrix(4.16667,0,0,4.16667,-24077.7,-5880.31)">
            <rect x="5747.76" y="1383.61" width="12.02" height="12.6" style="fill:white;"/>
        </g>
        <g transform="matrix(4.16667,0,0,4.16667,-24077.7,-5880.31)">
            <rect x="5759.78" y="1383.61" width="12.02" height="12.6" style="fill:rgb(108,175,182);"/>
        </g>
        <g transform="matrix(4.16667,0,0,4.16667,-24127.7,-5880.31)">
            <rect x="5831.9" y="1383.61" width="12.02" height="12.6" style="fill:white;"/>
        </g>
        <g transform="matrix(4.16667,0,0,4.16667,-24127.7,-5880.31)">
            <rect x="5831.9" y="1371.01" width="24.039" height="12.6"/>
        </g>
        <g transform="matrix(4.16667,0,0,4.16667,-24077.7,-5827.81)">
            <path d="M5759.78,1497.02L5795.84,1497.02L5795.84,1509.62L5819.88,1509.62L5819.88,1522.22L5795.84,1522.22L5795.84,1560.02L5783.82,1560L5783.82,1509.62L5759.78,1509.62L5759.78,1497.02Z"/>
        </g>
        <g transform="matrix(4.16667,0,0,4.16667,-24077.7,-5827.81)">
            <rect x="5807.86" y="1421.42" width="12.02" height="12.6"/>
        </g>
        <g transform="matrix(4.16667,0,0,4.16667,-24077.7,-5827.81)">
            <path d="M5795.84,1459.22L5831.9,1459.22L5831.9,1471.82L5819.88,1471.82L5819.88,1484.42L5807.86,1484.42L5807.86,1471.82L5795.84,1471.82L5795.84,1459.22Z" style="fill:rgb(206,32,38);"/>
        </g>
        <g transform="matrix(4.16667,0,0,4.16667,-24077.7,-5827.81)">
            <rect x="5699.68" y="1282.81" width="12.02" height="75.602"/>
        </g>
        <g transform="matrix(4.16667,0,0,4.16667,-24077.7,-5880.31)">
            <rect x="5747.76" y="1371.01" width="24.039" height="12.6"/>
        </g>
        <g transform="matrix(4.16667,0,0,4.16667,-24077.7,-5827.81)">
            <rect x="5711.7" y="1270.21" width="12.02" height="12.6"/>
        </g>
        <g transform="matrix(4.16667,0,0,4.16667,-24077.7,-5827.81)">
            <rect x="5723.72" y="1257.61" width="120.197" height="12.6"/>
        </g>
        <g transform="matrix(4.16667,0,0,4.16667,-24077.7,-5827.81)">
            <rect x="5747.76" y="1484.42" width="12.02" height="12.6"/>
        </g>
        <g transform="matrix(5.00822,0,0,3.49778,-28975.9,-4836.9)">
            <path d="M5819.98,1500L5839.98,1500L5839.98,1484.99L5849.98,1484.99L5849.98,1500L5839.98,1500L5839.98,1515.01L5819.98,1515.01L5819.98,1500Z"/>
        </g>
        <g transform="matrix(2.50411,0,0,2.62508,-829.804,-1007.78)">
            <path d="M240,180L340,180L340,200L320,200L320,220L300,220L300,240L280,240L280,260L260,260L260,480L280,480L280,500L300,500L300,520L320,520L320,560L340,560L340,580L300,580L300,560L280,560L280,540L260,540L260,640L220,640L220,400L200,400L200,320L220,320L220,200L240,200L240,180Z" style="fill-opacity:0.13;"/>
        </g>
    </g></g><g id="accessoiries" transform="matrix(22.5744,0,0,15.0513,-20.6845,82.9368)"><g id="cap" transform="matrix(0.0207914,0,0,0.0311836,18.3028,4.6211)">
            <g id="color10" serif:id="color" transform="matrix(4.16667,0,0,4.16667,-16702.7,-5421.58)">
                <path d="M3910.23,1340.81L4053.4,1340.81L4053.4,1289.68L4043.18,1289.68L4043.18,1279.45L3930.68,1279.45L3930.68,1289.68L3910.23,1289.68L3910.23,1340.81Z" style="fill:#FF1425;"/>
            </g>
            <g transform="matrix(4.16667,0,0,4.16667,-16702.7,-5421.58)">
                <path d="M3910.23,1340.81L4053.4,1340.81L4053.4,1289.68L4043.18,1289.68L4043.18,1279.45L4053.4,1279.45L4053.4,1289.68L4063.63,1289.68L4063.63,1340.81L4114.76,1340.81L4114.76,1351.04L3900,1351.04L3900,1290.02L3910.23,1289.68L3910.23,1340.81ZM3930.68,1269.23L4043.18,1269.23L4043.18,1279.45L3930.68,1279.45L3930.68,1289.68L3910.23,1289.68L3910.23,1279.45L3930.68,1279.45L3930.68,1269.23Z"/>
            </g>
            <g transform="matrix(4.16667,0,0,4.16667,-16702.7,-5421.58)">
                <rect x="4002.27" y="1310.13" width="10.227" height="10.227" style="fill:white;"/>
            </g>
            <g transform="matrix(4.16667,0,0,4.16667,-16702.7,-5421.58)">
                <rect x="3992.04" y="1320.36" width="10.227" height="10.227" style="fill:white;"/>
            </g>
            <g transform="matrix(4.16667,0,0,4.16667,-16702.7,-5421.58)">
                <rect x="3981.82" y="1310.13" width="10.227" height="10.227" style="fill:white;"/>
            </g>
        </g></g>
		<g transform="matrix(1.55556,0,0,1.38272,-4746.67,-2484.46)">
			<g id="bart"><path d="M3192.86,2129.47L3205.72,2129.47L3205.71,2143.94L3244.29,2143.94L3244.29,2129.47L3270,2130.01L3270,2115.01L3321.43,2115.01L3321.43,2129.47L3334.29,2129.47L3334.29,2143.94L3360,2143.94L3360,2201.8L3347.14,2201.8L3347.14,2216.26L3334.29,2216.26L3334.29,2230.72L3321.43,2230.72L3321.43,2245.19L3257.14,2245.19L3257.14,2230.72L3244.29,2230.72L3244.29,2216.26L3231.43,2216.26L3231.43,2201.8L3205.71,2201.8L3205.71,2187.33L3192.86,2187.33L3192.86,2129.47Z" style="fill:black;"/></g>
        </g>
	<g id="glases" transform="matrix(14.9706,0,0,15,90.1646,180)"><g id="party" transform="matrix(1.05263,0,0,1,-0.314999,-1)">
                <path d="M6,11.667L4.731,11.667L4.731,9L9.807,9L9.807,6.333L17.422,6.333L17.422,9L18.692,9L18.692,6.333L26.306,6.333L26.306,15.667L18.692,15.667L18.692,10.333L17.422,10.333L17.422,15.667L9.807,15.667L9.807,10.333L6,10.333L6,11.667ZM11.077,13L16.153,13L16.153,14.333L11.077,14.333L11.077,13ZM19.961,13L25.037,13L25.037,14.333L19.961,14.333L19.961,13ZM11.077,10.333L16.153,10.333L16.153,11.667L11.077,11.667L11.077,10.333ZM19.961,10.333L25.037,10.333L25.037,11.667L19.961,11.667L19.961,10.333ZM11.077,7.667L16.153,7.667L16.153,9L11.077,9L11.077,7.667ZM19.961,7.667L25.037,7.667L25.037,9L19.961,9L19.961,7.667Z" style="fill:#FF1425;"/>
            </g></g></g></svg>