<svg width="100%" height="100%" viewBox="0 0 1280 1280" version="1.1" xmlns="http://www.w3.org/2000/svg" xmlns:xlink="http://www.w3.org/1999/xlink" xml:space="preserve" xmlns:serif="http://www.serif.com/" style="fill-rule:evenodd;clip-rule:evenodd;stroke-linejoin:round;stroke-miterlimit:2;"><g transform="matrix(2,0,0,2,0,0)"><g id="background" transform="matrix(20,0,0,20,0,0)"><rect x="0" y="0" width="32" height="32" style="fill:#72736F;"/></g>
<g id="meshs" transform="matrix(18.4802,0,0,19.5673,-0.484754,14.4742)"><g id="male" transform="matrix(1.08224,0,0,1.02212,1.10847,-0.739717)">
            <path id="color2" serif:id="color" d="M10,32L10,19L9,19L9,16L10,16L10,9L11,9L11,8L21,8L21,9L22,9L22,27L21,27L21,28L16,28L16,32L10,32Z" style="fill:#C6927A;"/>
            <path d="M9,32L9,20L8,20L8,15L9,15L9,9L10,9L10,8L11,8L11,7L21,7L21,8L22,8L22,9L23,9L23,27L22,27L22,28L21,28L21,29L17,29L17,32L16,32L16,29L13,29L13,28L12,28L12,27L13,27L13,28L21,28L21,27L22,27L22,9L21,9L21,8L11,8L11,9L10,9L10,16L9,16L9,19L10,19.019L10,32L9,32Z"/>
            <rect x="17" y="20" width="3" height="1"/>
            <g transform="matrix(1.33333,0,0,1,-7.66667,4)">
                <rect x="17" y="20" width="3" height="1"/>
            </g>
            <g transform="matrix(0.923077,0,0,1,2,0)">
                <rect x="13" y="16" width="1.083" height="1"/>
            </g>
            <g transform="matrix(0.923077,0,0,1,9,0)">
                <rect x="13" y="16" width="1.083" height="1"/>
            </g>
            <g transform="matrix(1,0,0,1,1,0)">
                <rect x="12" y="16" width="1" height="1" style="fill:white;"/>
            </g>
            <g transform="matrix(1,0,0,1,8,0)">
                <rect x="12" y="16" width="1" height="1" style="fill:white;"/>
            </g>
            <g transform="matrix(1,0,0,1,1,0)">
                <rect x="12" y="15" width="2" height="1" style="fill-opacity:0.41;"/>
            </g>
            <g transform="matrix(1,0,0,1,8,0)">
                <rect x="12" y="15" width="2" height="1" style="fill-opacity:0.41;"/>
            </g>
            <g transform="matrix(0.05,0,0,0.05,-1,0)">
                <path d="M300,160L300,180L280,180L280,200L260,200L260,520L280,520L280,540L300,540L300,560L280,560L280,600L260,600L260,640L220,640L220,380L200,380L200,320L220,320L220,180L240,180L240,160L300,160Z" style="fill-opacity:0.09;"/>
            </g>
        </g></g><g id="accessoiries" transform="matrix(22.5744,0,0,15.0513,-20.6845,82.9368)"><g id="iro" transform="matrix(0.0590639,0,0,0.088586,-114.26,-107.827)">
            <path d="M2190.03,1215L2205.02,1215L2205.02,1245L2220.02,1245L2220.02,1275L2205.02,1275L2205.02,1290L2190.03,1290L2190.03,1275L2130.03,1275L2130.03,1260L2160.03,1260L2160.03,1245L2175.02,1245L2175.02,1230L2190.03,1230L2190.03,1215Z" style="fill:#1621F2;"/>
        </g></g>
		<g transform="matrix(1.55556,0,0,1.38272,-4746.67,-2484.46)">
			<g id="bart"><path d="M3192.86,2129.47L3205.72,2129.47L3205.71,2143.94L3244.29,2143.94L3244.29,2129.47L3270,2130.01L3270,2115.01L3321.43,2115.01L3321.43,2129.47L3334.29,2129.47L3334.29,2143.94L3360,2143.94L3360,2201.8L3347.14,2201.8L3347.14,2216.26L3334.29,2216.26L3334.29,2230.72L3321.43,2230.72L3321.43,2245.19L3257.14,2245.19L3257.14,2230.72L3244.29,2230.72L3244.29,2216.26L3231.43,2216.26L3231.43,2201.8L3205.71,2201.8L3205.71,2187.33L3192.86,2187.33L3192.86,2129.47Z" style="fill:black;"/></g>
        </g>
	<g id="glases" transform="matrix(14.9706,0,0,15,90.1646,180)"><g id="vrbrille" transform="matrix(0.0955562,0,0,0.0955562,-365.235,-87.1681)">
            <rect x="3912.96" y="968.032" width="167.77" height="13.953" style="fill:rgb(36,186,156);"/>
            <rect x="4080.73" y="981.986" width="13.981" height="83.72" style="fill:rgb(36,186,156);"/>
            <rect x="3912.96" y="1065.71" width="167.77" height="13.953" style="fill:rgb(36,186,156);"/>
            <rect x="3912.96" y="981.986" width="167.77" height="83.72"/>
            <rect x="4038.79" y="1009.89" width="27.962" height="27.907" style="fill:rgb(36,186,156);"/>
            <rect x="3940.92" y="1009.89" width="27.962" height="27.907" style="fill:rgb(36,186,156);"/>
            <rect x="3898.98" y="981.986" width="13.981" height="83.72" style="fill:rgb(36,186,156);"/>
            <rect x="3885" y="995.939" width="13.981" height="55.814"/>
            <rect x="4094.71" y="995.939" width="13.981" height="55.814"/>
            <rect x="3885" y="1051.75" width="13.981" height="13.953" style="fill:rgb(237,59,104);"/>
            <rect x="4094.71" y="1051.75" width="13.981" height="13.953" style="fill:rgb(237,59,104);"/>
            </g></g></g></svg>