<svg width="100%" height="100%" viewBox="0 0 1280 1280" version="1.1" xmlns="http://www.w3.org/2000/svg" xmlns:xlink="http://www.w3.org/1999/xlink" xml:space="preserve" xmlns:serif="http://www.serif.com/" style="fill-rule:evenodd;clip-rule:evenodd;stroke-linejoin:round;stroke-miterlimit:2;"><g transform="matrix(2,0,0,2,0,0)"><g id="background" transform="matrix(20,0,0,20,0,0)"><rect x="0" y="0" width="32" height="32" style="fill:#E6DCD8;"/></g>
<g id="meshs" transform="matrix(18.4802,0,0,19.5673,-0.484754,14.4742)"><g id="monster" transform="matrix(1.08224,0,0,1.02212,1.10847,-0.739717)">
            <path id="color4" serif:id="color" d="M10,32L10,19L8,19L8,15L10,15L10,9L11,9L11,8L21,8L21,9L22,9L22,27L21,27L21,28L16,28L16,32L10,32Z" style="fill:#435922;"/>
            <g transform="matrix(0.05,0,0,0.05,-1,0)">
                <path d="M280,180L280,520L300,520L300,540L320,540L320,580L280,580L280,640L220,640L220,380L180,380L180,300L220,300L220,180L280,180Z" style="fill-opacity:0.14;"/>
            </g>
            <path d="M9,32L9,20L7,20L7,14L9,14L9,8L10,8L10,7L22,7L22,8L23,8L23,27L22,27L22,28L21,28L21,29L17,29L17,32L16,32L16,29L13,29L13,28L12,28L12,27L13,27L13,28L21,28L21,27L22,27L22,10L21,10L21,9L20,9L20,10L19,10L19,9L18,9L18,10L17,10L17,9L16,9L16,10L15,10L15,9L14,9L14,10L13,10L13,9L12,9L12,10L11,10L11,9L10,9L10,16L9,16L9,15L8,15L8,19L10,19L10,32L9,32Z"/>
            <path d="M10,28L10,29L9,29L9,30L8,30L8,27L9,27L9,28L10,28Z" style="fill:rgb(244,243,96);"/>
            <g transform="matrix(1.25,0,0,1,-5,0)">
                <rect x="16" y="24" width="4" height="1" style="fill:rgb(5,0,0);"/>
            </g>
            <rect x="17" y="20" width="3" height="1"/>
            <g transform="matrix(0.923077,0,0,1,2,0)">
                <rect x="13" y="16" width="1.083" height="0.963"/>
            </g>
            <g transform="matrix(0.923077,0,0,1,9,0)">
                <rect x="13" y="16" width="1.083" height="0.963"/>
            </g>
            <g transform="matrix(1,0,0,1,1,0)">
                <rect x="12" y="16" width="1" height="0.963" style="fill:white;"/>
            </g>
            <g transform="matrix(1,0,0,1,8,0)">
                <rect x="12" y="16" width="1" height="0.963" style="fill:white;"/>
            </g>
            <g transform="matrix(4.5,0,0,1,-41,0)">
                <rect x="12" y="15" width="2" height="1"/>
            </g>
            <g transform="matrix(2.5,0,0,1,-15,1)">
                <rect x="12" y="15" width="2" height="1" style="fill-opacity:0.31;"/>
            </g>
        </g></g><g id="accessoiries" transform="matrix(22.5744,0,0,15.0513,-20.6845,82.9368)"><g id="cap" transform="matrix(0.0207914,0,0,0.0311836,18.3028,4.6211)">
            <g id="color10" serif:id="color" transform="matrix(4.16667,0,0,4.16667,-16702.7,-5421.58)">
                <path d="M3910.23,1340.81L4053.4,1340.81L4053.4,1289.68L4043.18,1289.68L4043.18,1279.45L3930.68,1279.45L3930.68,1289.68L3910.23,1289.68L3910.23,1340.81Z" style="fill:#4ACAD9;"/>
            </g>
            <g transform="matrix(4.16667,0,0,4.16667,-16702.7,-5421.58)">
                <path d="M3910.23,1340.81L4053.4,1340.81L4053.4,1289.68L4043.18,1289.68L4043.18,1279.45L4053.4,1279.45L4053.4,1289.68L4063.63,1289.68L4063.63,1340.81L4114.76,1340.81L4114.76,1351.04L3900,1351.04L3900,1290.02L3910.23,1289.68L3910.23,1340.81ZM3930.68,1269.23L4043.18,1269.23L4043.18,1279.45L3930.68,1279.45L3930.68,1289.68L3910.23,1289.68L3910.23,1279.45L3930.68,1279.45L3930.68,1269.23Z"/>
            </g>
            <g transform="matrix(4.16667,0,0,4.16667,-16702.7,-5421.58)">
                <rect x="4002.27" y="1310.13" width="10.227" height="10.227" style="fill:white;"/>
            </g>
            <g transform="matrix(4.16667,0,0,4.16667,-16702.7,-5421.58)">
                <rect x="3992.04" y="1320.36" width="10.227" height="10.227" style="fill:white;"/>
            </g>
            <g transform="matrix(4.16667,0,0,4.16667,-16702.7,-5421.58)">
                <rect x="3981.82" y="1310.13" width="10.227" height="10.227" style="fill:white;"/>
            </g>
        </g></g>
		<g transform="matrix(1.55556,0,0,1.38272,-4746.67,-2484.46)">
			<g id="bart"></g>
        </g>
	<g id="glases" transform="matrix(14.9706,0,0,15,90.1646,180)"><g id="vrbrille" transform="matrix(0.0955562,0,0,0.0955562,-365.235,-87.1681)">
            <rect x="3912.96" y="968.032" width="167.77" height="13.953" style="fill:rgb(36,186,156);"/>
            <rect x="4080.73" y="981.986" width="13.981" height="83.72" style="fill:rgb(36,186,156);"/>
            <rect x="3912.96" y="1065.71" width="167.77" height="13.953" style="fill:rgb(36,186,156);"/>
            <rect x="3912.96" y="981.986" width="167.77" height="83.72"/>
            <rect x="4038.79" y="1009.89" width="27.962" height="27.907" style="fill:rgb(36,186,156);"/>
            <rect x="3940.92" y="1009.89" width="27.962" height="27.907" style="fill:rgb(36,186,156);"/>
            <rect x="3898.98" y="981.986" width="13.981" height="83.72" style="fill:rgb(36,186,156);"/>
            <rect x="3885" y="995.939" width="13.981" height="55.814"/>
            <rect x="4094.71" y="995.939" width="13.981" height="55.814"/>
            <rect x="3885" y="1051.75" width="13.981" height="13.953" style="fill:rgb(237,59,104);"/>
            <rect x="4094.71" y="1051.75" width="13.981" height="13.953" style="fill:rgb(237,59,104);"/>
            </g></g></g></svg>