<svg width="100%" height="100%" viewBox="0 0 1280 1280" version="1.1" xmlns="http://www.w3.org/2000/svg" xmlns:xlink="http://www.w3.org/1999/xlink" xml:space="preserve" xmlns:serif="http://www.serif.com/" style="fill-rule:evenodd;clip-rule:evenodd;stroke-linejoin:round;stroke-miterlimit:2;"><g transform="matrix(2,0,0,2,0,0)"><g id="background" transform="matrix(20,0,0,20,0,0)"><rect x="0" y="0" width="32" height="32" style="fill:#BFADB9;"/></g>
<g id="meshs" transform="matrix(18.4802,0,0,19.5673,-0.484754,14.4742)"><g id="monster" transform="matrix(1.08224,0,0,1.02212,1.10847,-0.739717)">
            <path id="color4" serif:id="color" d="M10,32L10,19L8,19L8,15L10,15L10,9L11,9L11,8L21,8L21,9L22,9L22,27L21,27L21,28L16,28L16,32L10,32Z" style="fill:#7D7542;"/>
            <g transform="matrix(0.05,0,0,0.05,-1,0)">
                <path d="M280,180L280,520L300,520L300,540L320,540L320,580L280,580L280,640L220,640L220,380L180,380L180,300L220,300L220,180L280,180Z" style="fill-opacity:0.14;"/>
            </g>
            <path d="M9,32L9,20L7,20L7,14L9,14L9,8L10,8L10,7L22,7L22,8L23,8L23,27L22,27L22,28L21,28L21,29L17,29L17,32L16,32L16,29L13,29L13,28L12,28L12,27L13,27L13,28L21,28L21,27L22,27L22,10L21,10L21,9L20,9L20,10L19,10L19,9L18,9L18,10L17,10L17,9L16,9L16,10L15,10L15,9L14,9L14,10L13,10L13,9L12,9L12,10L11,10L11,9L10,9L10,16L9,16L9,15L8,15L8,19L10,19L10,32L9,32Z"/>
            <path d="M10,28L10,29L9,29L9,30L8,30L8,27L9,27L9,28L10,28Z" style="fill:rgb(244,243,96);"/>
            <g transform="matrix(1.25,0,0,1,-5,0)">
                <rect x="16" y="24" width="4" height="1" style="fill:rgb(5,0,0);"/>
            </g>
            <rect x="17" y="20" width="3" height="1"/>
            <g transform="matrix(0.923077,0,0,1,2,0)">
                <rect x="13" y="16" width="1.083" height="0.963"/>
            </g>
            <g transform="matrix(0.923077,0,0,1,9,0)">
                <rect x="13" y="16" width="1.083" height="0.963"/>
            </g>
            <g transform="matrix(1,0,0,1,1,0)">
                <rect x="12" y="16" width="1" height="0.963" style="fill:white;"/>
            </g>
            <g transform="matrix(1,0,0,1,8,0)">
                <rect x="12" y="16" width="1" height="0.963" style="fill:white;"/>
            </g>
            <g transform="matrix(4.5,0,0,1,-41,0)">
                <rect x="12" y="15" width="2" height="1"/>
            </g>
            <g transform="matrix(2.5,0,0,1,-15,1)">
                <rect x="12" y="15" width="2" height="1" style="fill-opacity:0.31;"/>
            </g>
        </g></g><g id="accessoiries" transform="matrix(22.5744,0,0,15.0513,-20.6845,82.9368)"><g id="afrob" transform="matrix(0.0764357,0,0,0.109029,-315.683,-97.0446)">
            <path d="M4257.94,1071.1L4234.76,1071.1L4234.76,1058.92L4223.17,1058.92L4223.17,1046.73L4211.58,1046.73L4211.58,1034.54L4199.99,1034.54L4199.99,1022.35L4211.58,1022.35L4211.58,997.979L4199.99,997.979L4199.99,961.416L4223.17,961.416L4223.17,937.041L4234.76,937.041L4234.76,912.666L4246.35,912.666L4246.35,900.479L4257.94,900.479L4257.94,888.291L4304.31,888.291L4304.31,876.104L4339.08,876.104L4339.08,888.291L4350.67,888.291L4350.67,876.104L4362.26,876.104L4362.26,888.291L4408.63,888.291L4408.63,900.479L4431.81,900.479L4431.81,924.854L4439.99,924.854L4439.99,937.041L4449.19,937.041L4449.19,949.229L4437.6,949.229L4437.6,961.416L4443.4,961.416L4443.4,1010.17L4431.81,1010.17L4431.81,1022.35L4443.4,1022.35L4443.4,1034.54L4431.81,1034.54L4431.81,1046.73L4420.22,1046.73L4420.22,985.791L4397.04,985.791L4397.04,973.604L4327.49,973.604L4327.49,985.791L4315.9,985.791L4315.9,973.604L4292.72,973.604L4292.72,997.979L4269.54,997.979L4269.54,1034.54L4257.94,1034.54L4257.94,1071.1ZM4292.72,997.979L4304.31,997.979L4304.31,1010.17L4292.72,1010.17L4292.72,997.979Z"/>
        </g></g>
		<g transform="matrix(1.55556,0,0,1.38272,-4746.67,-2484.46)">
			<g id="bart"></g>
        </g>
	<g id="glases" transform="matrix(14.9706,0,0,15,90.1646,180)"></g></g></svg>