<svg width="100%" height="100%" viewBox="0 0 1280 1280" version="1.1" xmlns="http://www.w3.org/2000/svg" xmlns:xlink="http://www.w3.org/1999/xlink" xml:space="preserve" xmlns:serif="http://www.serif.com/" style="fill-rule:evenodd;clip-rule:evenodd;stroke-linejoin:round;stroke-miterlimit:2;"><g transform="matrix(2,0,0,2,0,0)"><g id="background" transform="matrix(20,0,0,20,0,0)"><rect x="0" y="0" width="32" height="32" style="fill:#BADFB5;"/></g>
<g id="meshs" transform="matrix(18.4802,0,0,19.5673,-0.484754,14.4742)"><g id="male" transform="matrix(1.08224,0,0,1.02212,1.10847,-0.739717)">
            <path id="color2" serif:id="color" d="M10,32L10,19L9,19L9,16L10,16L10,9L11,9L11,8L21,8L21,9L22,9L22,27L21,27L21,28L16,28L16,32L10,32Z" style="fill:#C6927A;"/>
            <path d="M9,32L9,20L8,20L8,15L9,15L9,9L10,9L10,8L11,8L11,7L21,7L21,8L22,8L22,9L23,9L23,27L22,27L22,28L21,28L21,29L17,29L17,32L16,32L16,29L13,29L13,28L12,28L12,27L13,27L13,28L21,28L21,27L22,27L22,9L21,9L21,8L11,8L11,9L10,9L10,16L9,16L9,19L10,19.019L10,32L9,32Z"/>
            <rect x="17" y="20" width="3" height="1"/>
            <g transform="matrix(1.33333,0,0,1,-7.66667,4)">
                <rect x="17" y="20" width="3" height="1"/>
            </g>
            <g transform="matrix(0.923077,0,0,1,2,0)">
                <rect x="13" y="16" width="1.083" height="1"/>
            </g>
            <g transform="matrix(0.923077,0,0,1,9,0)">
                <rect x="13" y="16" width="1.083" height="1"/>
            </g>
            <g transform="matrix(1,0,0,1,1,0)">
                <rect x="12" y="16" width="1" height="1" style="fill:white;"/>
            </g>
            <g transform="matrix(1,0,0,1,8,0)">
                <rect x="12" y="16" width="1" height="1" style="fill:white;"/>
            </g>
            <g transform="matrix(1,0,0,1,1,0)">
                <rect x="12" y="15" width="2" height="1" style="fill-opacity:0.41;"/>
            </g>
            <g transform="matrix(1,0,0,1,8,0)">
                <rect x="12" y="15" width="2" height="1" style="fill-opacity:0.41;"/>
            </g>
            <g transform="matrix(0.05,0,0,0.05,-1,0)">
                <path d="M300,160L300,180L280,180L280,200L260,200L260,520L280,520L280,540L300,540L300,560L280,560L280,600L260,600L260,640L220,640L220,380L200,380L200,320L220,320L220,180L240,180L240,160L300,160Z" style="fill-opacity:0.09;"/>
            </g>
        </g></g><g id="accessoiries" transform="matrix(22.5744,0,0,15.0513,-20.6845,82.9368)"><g id="afrob" transform="matrix(0.0764357,0,0,0.109029,-315.683,-97.0446)">
            <path d="M4257.94,1071.1L4234.76,1071.1L4234.76,1058.92L4223.17,1058.92L4223.17,1046.73L4211.58,1046.73L4211.58,1034.54L4199.99,1034.54L4199.99,1022.35L4211.58,1022.35L4211.58,997.979L4199.99,997.979L4199.99,961.416L4223.17,961.416L4223.17,937.041L4234.76,937.041L4234.76,912.666L4246.35,912.666L4246.35,900.479L4257.94,900.479L4257.94,888.291L4304.31,888.291L4304.31,876.104L4339.08,876.104L4339.08,888.291L4350.67,888.291L4350.67,876.104L4362.26,876.104L4362.26,888.291L4408.63,888.291L4408.63,900.479L4431.81,900.479L4431.81,924.854L4439.99,924.854L4439.99,937.041L4449.19,937.041L4449.19,949.229L4437.6,949.229L4437.6,961.416L4443.4,961.416L4443.4,1010.17L4431.81,1010.17L4431.81,1022.35L4443.4,1022.35L4443.4,1034.54L4431.81,1034.54L4431.81,1046.73L4420.22,1046.73L4420.22,985.791L4397.04,985.791L4397.04,973.604L4327.49,973.604L4327.49,985.791L4315.9,985.791L4315.9,973.604L4292.72,973.604L4292.72,997.979L4269.54,997.979L4269.54,1034.54L4257.94,1034.54L4257.94,1071.1ZM4292.72,997.979L4304.31,997.979L4304.31,1010.17L4292.72,1010.17L4292.72,997.979Z"/>
        </g></g>
		<g transform="matrix(1.55556,0,0,1.38272,-4746.67,-2484.46)">
			<g id="bart"><path d="M3192.86,2129.47L3205.72,2129.47L3205.71,2143.94L3244.29,2143.94L3244.29,2129.47L3270,2130.01L3270,2115.01L3321.43,2115.01L3321.43,2129.47L3334.29,2129.47L3334.29,2143.94L3360,2143.94L3360,2201.8L3347.14,2201.8L3347.14,2216.26L3334.29,2216.26L3334.29,2230.72L3321.43,2230.72L3321.43,2245.19L3257.14,2245.19L3257.14,2230.72L3244.29,2230.72L3244.29,2216.26L3231.43,2216.26L3231.43,2201.8L3205.71,2201.8L3205.71,2187.33L3192.86,2187.33L3192.86,2129.47Z" style="fill:black;"/></g>
        </g>
	<g id="glases" transform="matrix(14.9706,0,0,15,90.1646,180)"><g id="nounsbrille" transform="matrix(1.05263,0,0,1,-0.314999,-1)">
                <g>
                    <rect x="21.23" y="7.667" width="3.807" height="6.667" style="fill:rgb(1,0,0);"/>
                    <rect x="19.961" y="7.667" width="1.269" height="6.667" style="fill:white;"/>
                </g>
                <g transform="matrix(1,0,0,1,-8.03234,0)">
                    <g transform="matrix(1.10647,0,0,1,-2.02289,0)">
                        <rect x="20.246" y="7.667" width="3.441" height="6.667" style="fill:rgb(1,0,0);"/>
                    </g>
                    <rect x="19.109" y="7.667" width="1.269" height="6.667" style="fill:white;"/>
                </g>
                <path id="_1" serif:id="1" d="M6,11.667L6,10.333L9.807,10.333L9.807,15.667L17.422,15.667L17.422,10.333L18.692,10.333L18.692,15.667L26.269,15.667L26.306,6.333L18.692,6.333L18.692,9L17.422,9L17.422,6.333L9.807,6.333L9.807,9L4.731,9L4.731,11.667L6,11.667ZM11.077,7.667L16.153,7.667L16.153,14.333L11.077,14.333L11.077,7.667ZM19.961,7.667L25.037,7.667L25.037,14.333L19.961,14.333L19.961,7.667Z" style="fill:#4ACAD9;"/>
            </g></g></g></svg>