<svg width="100%" height="100%" viewBox="0 0 1280 1280" version="1.1" xmlns="http://www.w3.org/2000/svg" xmlns:xlink="http://www.w3.org/1999/xlink" xml:space="preserve" xmlns:serif="http://www.serif.com/" style="fill-rule:evenodd;clip-rule:evenodd;stroke-linejoin:round;stroke-miterlimit:2;"><g transform="matrix(2,0,0,2,0,0)"><g id="background" transform="matrix(20,0,0,20,0,0)"><rect x="0" y="0" width="32" height="32" style="fill:#BADFB5;"/></g>
<g id="meshs" transform="matrix(18.4802,0,0,19.5673,-0.484754,14.4742)"><g id="troll" transform="matrix(0.020779,0,0,0.0224,15.9274,18.3069)">
            <g id="color" transform="matrix(4.16667,0,0,4.16667,-10515.3,-8890.25)">
                <path d="M2540.01,2280.03L2477.51,2280.03L2477.51,2148.61L2452.51,2148.61L2452.51,2115.76L2440.01,2115.76L2440.01,2093.86L2477.51,2093.86L2477.51,2028.15L2490.01,2028.15L2490.01,2017.2L2615.01,2017.2L2615.01,2028.15L2627.51,2028.15L2627.51,2225.27L2615.01,2225.27L2615.01,2236.22L2540.01,2236.22L2540.01,2280.03Z" style="fill:#7D7542;"/>
            </g>
            <g transform="matrix(4.16667,0,0,4.16667,-10515.3,-8890.25)">
                <rect x="2477.51" y="2017.2" width="12.5" height="10.951"/>
            </g>
            <g transform="matrix(4.16667,0,0,4.16667,-10515.3,-8890.25)">
                <path d="M2490.01,2005.92L2615.01,2006.25L2615.01,2017.2L2490.01,2017.2L2490.01,2005.92Z"/>
            </g>
            <g transform="matrix(4.16667,0,0,4.16667,-10515.3,-8890.25)">
                <rect x="2627.51" y="2028.15" width="12.5" height="197.122"/>
            </g>
            <g transform="matrix(4.16667,0,0,4.16667,-10515.3,-8890.25)">
                <rect x="2615.01" y="2225.27" width="12.5" height="10.951"/>
            </g>
            <g transform="matrix(4.16667,0,0,4.16667,-10515.3,-8890.25)">
                <path d="M2552.51,2247.18L2552.51,2280.03L2540.01,2280.03L2540.01,2247.18L2527.51,2247.18L2527.51,2236.22L2615.01,2236.22L2615.01,2247.18L2552.51,2247.18Z"/>
            </g>
            <g transform="matrix(4.16667,0,0,4.16667,-10515.3,-8890.25)">
                <rect x="2440.01" y="2115.76" width="12.5" height="32.854"/>
            </g>
            <g transform="matrix(4.16667,0,0,4.16667,-10515.3,-8890.25)">
                <path d="M2477.51,2280.03L2465.01,2280.03L2465.01,2159.57L2452.51,2159.57L2452.51,2148.61L2477.51,2148.61L2477.51,2280.03Z"/>
            </g>
            <g transform="matrix(4.16667,0,0,4.16667,-10515.3,-8890.25)">
                <path d="M2427.51,2071.95L2440.01,2071.95L2440.01,2082.91L2465.01,2082.91L2465.01,2028.15L2477.51,2028.15L2477.51,2093.86L2440.01,2093.86L2440.01,2115.76L2427.51,2115.76L2427.51,2071.95Z"/>
            </g>
            <g transform="matrix(4.16667,0,0,4.16667,-10515.3,-8890.25)">
                <rect x="2502.51" y="2104.81" width="12.5" height="10.951" style="fill:rgb(253,213,64);"/>
            </g>
            <g transform="matrix(4.16667,0,0,4.16667,-10515.3,-8890.25)">
                <rect x="2565.01" y="2148.61" width="25" height="10.951"/>
            </g>
            <g transform="matrix(4.16667,0,0,4.16667,-10515.3,-8890.25)">
                <rect x="2540.01" y="2192.42" width="50" height="10.951"/>
            </g>
            <g transform="matrix(4.16667,0,0,4.16667,-10515.3,-8890.25)">
                <rect x="2515.01" y="2104.81" width="12.5" height="10.951"/>
            </g>
            <g transform="matrix(4.16667,0,0,4.16667,-10515.3,-8890.25)">
                <rect x="2602.51" y="2104.81" width="12.5" height="10.951" style="fill:rgb(253,213,64);"/>
            </g>
            <g transform="matrix(4.16667,0,0,4.16667,-10515.3,-8890.25)">
                <rect x="2615.01" y="2104.81" width="12.5" height="10.951"/>
            </g>
            <g transform="matrix(4.16667,0,0,4.16667,-10515.3,-8890.25)">
                <rect x="2502.51" y="2093.86" width="37.5" height="10.951"/>
            </g>
            <g transform="matrix(4.16667,0,0,4.16667,-10515.3,-8890.25)">
                <rect x="2602.51" y="2093.86" width="25" height="10.951"/>
            </g>
            <g transform="matrix(4.16667,0,0,4.16667,-10515.3,-8890.25)">
                <rect x="2527.51" y="2181.47" width="12.5" height="10.951"/>
            </g>
            <g transform="matrix(4.16667,0,0,4.16667,-10515.3,-8890.25)">
                <rect x="2590.01" y="2181.47" width="12.5" height="10.951"/>
            </g>
            <g transform="matrix(4.16667,0,0,4.16667,-10515.3,-8890.25)">
                <rect x="2515.01" y="2192.42" width="12.5" height="10.951"/>
            </g>
            <g transform="matrix(4.16667,0,0,4.16667,-10515.3,-8890.25)">
                <rect x="2502.51" y="2181.47" width="12.5" height="10.951"/>
            </g>
            <g transform="matrix(4.16667,0,0,4.16667,-10515.3,-8890.25)">
                <rect x="2602.51" y="2192.42" width="12.5" height="10.951"/>
            </g>
            <g transform="matrix(4.16667,0,0,4.16667,-10515.3,-8890.25)">
                <rect x="2527.51" y="2192.42" width="12.5" height="10.951" style="fill:white;"/>
            </g>
            <g transform="matrix(4.16667,0,0,4.16667,-10515.3,-8890.25)">
                <rect x="2590.01" y="2192.42" width="12.5" height="10.951" style="fill:white;"/>
            </g>
            <g transform="matrix(4.16667,0,0,4.16667,-10515.3,-8890.25)">
                <rect x="2615.01" y="2017.2" width="12.5" height="10.951"/>
            </g>
            <g transform="matrix(2.60417,0,0,2.28151,-765.25,-850.297)">
                <path d="M300,160L300,180L280,180L280,200L260,200L260,540L280,540L280,560L300,560L300,600L280,600L280,620L260,620L260,640L220,640L220,400L180,400L180,340L160,340L160,300L220,300L220,180L240,180L240,160L300,160Z" style="fill-opacity:0.24;"/>
            </g>
        </g></g><g id="accessoiries" transform="matrix(22.5744,0,0,15.0513,-20.6845,82.9368)"><g id="iro" transform="matrix(0.0590639,0,0,0.088586,-114.26,-107.827)">
            <path d="M2190.03,1215L2205.02,1215L2205.02,1245L2220.02,1245L2220.02,1275L2205.02,1275L2205.02,1290L2190.03,1290L2190.03,1275L2130.03,1275L2130.03,1260L2160.03,1260L2160.03,1245L2175.02,1245L2175.02,1230L2190.03,1230L2190.03,1215Z" style="fill:#4F1BBF;"/>
        </g></g>
		<g transform="matrix(1.55556,0,0,1.38272,-4746.67,-2484.46)">
			<g id="bart"><path d="M3192.86,2129.47L3205.72,2129.47L3205.71,2143.94L3244.29,2143.94L3244.29,2129.47L3270,2130.01L3270,2115.01L3321.43,2115.01L3321.43,2129.47L3334.29,2129.47L3334.29,2143.94L3360,2143.94L3360,2201.8L3347.14,2201.8L3347.14,2216.26L3334.29,2216.26L3334.29,2230.72L3321.43,2230.72L3321.43,2245.19L3257.14,2245.19L3257.14,2230.72L3244.29,2230.72L3244.29,2216.26L3231.43,2216.26L3231.43,2201.8L3205.71,2201.8L3205.71,2187.33L3192.86,2187.33L3192.86,2129.47Z" style="fill:black;"/></g>
        </g>
	<g id="glases" transform="matrix(14.9706,0,0,15,90.1646,180)"><g id="vrbrille" transform="matrix(0.0955562,0,0,0.0955562,-365.235,-87.1681)">
            <rect x="3912.96" y="968.032" width="167.77" height="13.953" style="fill:rgb(36,186,156);"/>
            <rect x="4080.73" y="981.986" width="13.981" height="83.72" style="fill:rgb(36,186,156);"/>
            <rect x="3912.96" y="1065.71" width="167.77" height="13.953" style="fill:rgb(36,186,156);"/>
            <rect x="3912.96" y="981.986" width="167.77" height="83.72"/>
            <rect x="4038.79" y="1009.89" width="27.962" height="27.907" style="fill:rgb(36,186,156);"/>
            <rect x="3940.92" y="1009.89" width="27.962" height="27.907" style="fill:rgb(36,186,156);"/>
            <rect x="3898.98" y="981.986" width="13.981" height="83.72" style="fill:rgb(36,186,156);"/>
            <rect x="3885" y="995.939" width="13.981" height="55.814"/>
            <rect x="4094.71" y="995.939" width="13.981" height="55.814"/>
            <rect x="3885" y="1051.75" width="13.981" height="13.953" style="fill:rgb(237,59,104);"/>
            <rect x="4094.71" y="1051.75" width="13.981" height="13.953" style="fill:rgb(237,59,104);"/>
            </g></g></g></svg>