<svg width="100%" height="100%" viewBox="0 0 1280 1280" version="1.1" xmlns="http://www.w3.org/2000/svg" xmlns:xlink="http://www.w3.org/1999/xlink" xml:space="preserve" xmlns:serif="http://www.serif.com/" style="fill-rule:evenodd;clip-rule:evenodd;stroke-linejoin:round;stroke-miterlimit:2;"><g transform="matrix(2,0,0,2,0,0)"><g id="background" transform="matrix(20,0,0,20,0,0)"><rect x="0" y="0" width="32" height="32" style="fill:#72736F;"/></g>
<g id="meshs" transform="matrix(18.4802,0,0,19.5673,-0.484754,14.4742)"><g id="weibl" transform="matrix(0.0216093,0,0,0.0194683,17.9577,18.8801)">
        <g id="color6" serif:id="color" transform="matrix(4.16667,0,0,4.16667,-24077.7,-5827.81)">
            <path d="M5783.82,1560.02L5711.7,1560.02L5711.7,1421.42L5699.68,1421.42L5699.68,1358.41L5711.7,1358.41L5711.7,1282.81L5723.72,1282.81L5723.72,1270.21L5855.94,1270.21L5855.94,1282.81L5867.96,1282.81L5867.96,1484.42L5855.94,1484.42L5855.94,1497.02L5819.88,1497.02L5819.88,1509.62L5783.82,1509.62L5783.82,1560.02Z" style="fill:#E9CEC3"/>
        </g>
        <g transform="matrix(4.16667,0,0,4.16667,-24127.7,-5880.31)">
            <rect x="5843.92" y="1383.61" width="12.02" height="12.6" style="fill:rgb(108,175,182);"/>
        </g>
        <g transform="matrix(3.33881,0,0,4.16667,-19209.9,-5827.81)">
            <path d="M5834.98,1282.81L5834.98,1270.21L5849.98,1270.21L5849.98,1282.81L5864.98,1282.81L5864.98,1484.42L5849.98,1484.42L5849.98,1282.81L5834.98,1282.81Z"/>
        </g>
        <g transform="matrix(4.16667,0,0,4.16667,-24077.7,-5827.81)">
            <path d="M5711.7,1408.82L5711.7,1560.02L5699.98,1560.02L5699.68,1421.42L5687.66,1421.42L5687.66,1408.82L5711.7,1408.82Z"/>
        </g>
        <g transform="matrix(4.16667,0,0,4.16667,-24077.7,-5827.81)">
            <rect x="5687.66" y="1358.41" width="12.02" height="50.402"/>
        </g>
        <g transform="matrix(4.16667,0,0,4.16667,-24077.7,-5880.31)">
            <rect x="5747.76" y="1383.61" width="12.02" height="12.6" style="fill:white;"/>
        </g>
        <g transform="matrix(4.16667,0,0,4.16667,-24077.7,-5880.31)">
            <rect x="5759.78" y="1383.61" width="12.02" height="12.6" style="fill:rgb(108,175,182);"/>
        </g>
        <g transform="matrix(4.16667,0,0,4.16667,-24127.7,-5880.31)">
            <rect x="5831.9" y="1383.61" width="12.02" height="12.6" style="fill:white;"/>
        </g>
        <g transform="matrix(4.16667,0,0,4.16667,-24127.7,-5880.31)">
            <rect x="5831.9" y="1371.01" width="24.039" height="12.6"/>
        </g>
        <g transform="matrix(4.16667,0,0,4.16667,-24077.7,-5827.81)">
            <path d="M5759.78,1497.02L5795.84,1497.02L5795.84,1509.62L5819.88,1509.62L5819.88,1522.22L5795.84,1522.22L5795.84,1560.02L5783.82,1560L5783.82,1509.62L5759.78,1509.62L5759.78,1497.02Z"/>
        </g>
        <g transform="matrix(4.16667,0,0,4.16667,-24077.7,-5827.81)">
            <rect x="5807.86" y="1421.42" width="12.02" height="12.6"/>
        </g>
        <g transform="matrix(4.16667,0,0,4.16667,-24077.7,-5827.81)">
            <path d="M5795.84,1459.22L5831.9,1459.22L5831.9,1471.82L5819.88,1471.82L5819.88,1484.42L5807.86,1484.42L5807.86,1471.82L5795.84,1471.82L5795.84,1459.22Z" style="fill:rgb(206,32,38);"/>
        </g>
        <g transform="matrix(4.16667,0,0,4.16667,-24077.7,-5827.81)">
            <rect x="5699.68" y="1282.81" width="12.02" height="75.602"/>
        </g>
        <g transform="matrix(4.16667,0,0,4.16667,-24077.7,-5880.31)">
            <rect x="5747.76" y="1371.01" width="24.039" height="12.6"/>
        </g>
        <g transform="matrix(4.16667,0,0,4.16667,-24077.7,-5827.81)">
            <rect x="5711.7" y="1270.21" width="12.02" height="12.6"/>
        </g>
        <g transform="matrix(4.16667,0,0,4.16667,-24077.7,-5827.81)">
            <rect x="5723.72" y="1257.61" width="120.197" height="12.6"/>
        </g>
        <g transform="matrix(4.16667,0,0,4.16667,-24077.7,-5827.81)">
            <rect x="5747.76" y="1484.42" width="12.02" height="12.6"/>
        </g>
        <g transform="matrix(5.00822,0,0,3.49778,-28975.9,-4836.9)">
            <path d="M5819.98,1500L5839.98,1500L5839.98,1484.99L5849.98,1484.99L5849.98,1500L5839.98,1500L5839.98,1515.01L5819.98,1515.01L5819.98,1500Z"/>
        </g>
        <g transform="matrix(2.50411,0,0,2.62508,-829.804,-1007.78)">
            <path d="M240,180L340,180L340,200L320,200L320,220L300,220L300,240L280,240L280,260L260,260L260,480L280,480L280,500L300,500L300,520L320,520L320,560L340,560L340,580L300,580L300,560L280,560L280,540L260,540L260,640L220,640L220,400L200,400L200,320L220,320L220,200L240,200L240,180Z" style="fill-opacity:0.13;"/>
        </g>
    </g></g><g id="accessoiries" transform="matrix(22.5744,0,0,15.0513,-20.6845,82.9368)"><g id="mutze" transform="matrix(0.0675016,0,0,0.066253,-107.552,-128.395)">
            <path id="color8" serif:id="color" d="M1738.14,2015.23L1751.27,2015.23L1751.27,1995.17L1764.39,1995.17L1764.39,1975.11L1895.64,1975.11L1895.64,1995.17L1908.77,1995.17L1908.77,2015.23L1921.89,2015.23L1921.89,2075.39L1738.14,2075.39L1738.14,2015.23Z" style="fill:#1621F2;"/>
            <path d="M1908.77,1995.17L1908.77,2015.23L1882.52,2015.23L1882.52,2075.39L1869.39,2075.39L1869.39,2015.23L1843.14,2015.23L1843.14,2075.39L1830.02,2075.39L1830.02,2015.23L1803.77,2015.23L1803.77,2075.39L1790.64,2075.39L1790.64,2015.23L1751.27,2015.23L1751.27,2075.39L1738.14,2075.39L1738.14,2015.23L1751.27,2015.23L1751.27,1995.17L1908.77,1995.17Z" style="fill-opacity:0.23;"/>
            <path d="M1935.02,2075.39L1921.89,2075.39L1921.89,2015.23L1908.77,2015.23L1908.77,1995.17L1895.64,1995.17L1895.64,1975.11L1908.77,1975.11L1908.77,1995.17L1921.89,1995.17L1921.89,2015.23L1935.02,2015.23L1935.02,2075.39ZM1803.77,1935L1856.27,1935L1856.27,1955.06L1895.64,1955.06L1895.64,1975.11L1764.39,1975.11L1764.39,1995.17L1751.27,1995.17L1751.27,1975.11L1764.39,1975.11L1764.39,1955.06L1803.77,1955.06L1803.77,1935ZM1725.02,2015.23L1738.14,2015.23L1738.14,1995.17L1751.27,1995.17L1751.27,2015.23L1738.14,2015.23L1738.14,2075.39L1725.02,2075.39L1725.02,2015.23Z"/>
            <g id="color9" serif:id="color" transform="matrix(1,0,0,1,0,20.0563)">
                <rect x="1816.89" y="1935" width="26.25" height="20.056" style="fill:#1621F2;"/>
            </g>
        </g></g>
		<g transform="matrix(1.55556,0,0,1.38272,-4746.67,-2484.46)">
			<g id="bart"><path d="M3192.86,2129.47L3205.72,2129.47L3205.71,2143.94L3244.29,2143.94L3244.29,2129.47L3270,2130.01L3270,2115.01L3321.43,2115.01L3321.43,2129.47L3334.29,2129.47L3334.29,2143.94L3360,2143.94L3360,2201.8L3347.14,2201.8L3347.14,2216.26L3334.29,2216.26L3334.29,2230.72L3321.43,2230.72L3321.43,2245.19L3257.14,2245.19L3257.14,2230.72L3244.29,2230.72L3244.29,2216.26L3231.43,2216.26L3231.43,2201.8L3205.71,2201.8L3205.71,2187.33L3192.86,2187.33L3192.86,2129.47Z" style="fill:black;"/></g>
        </g>
	<g id="glases" transform="matrix(14.9706,0,0,15,90.1646,180)"><g id="vrbrille" transform="matrix(0.0955562,0,0,0.0955562,-365.235,-87.1681)">
            <rect x="3912.96" y="968.032" width="167.77" height="13.953" style="fill:rgb(36,186,156);"/>
            <rect x="4080.73" y="981.986" width="13.981" height="83.72" style="fill:rgb(36,186,156);"/>
            <rect x="3912.96" y="1065.71" width="167.77" height="13.953" style="fill:rgb(36,186,156);"/>
            <rect x="3912.96" y="981.986" width="167.77" height="83.72"/>
            <rect x="4038.79" y="1009.89" width="27.962" height="27.907" style="fill:rgb(36,186,156);"/>
            <rect x="3940.92" y="1009.89" width="27.962" height="27.907" style="fill:rgb(36,186,156);"/>
            <rect x="3898.98" y="981.986" width="13.981" height="83.72" style="fill:rgb(36,186,156);"/>
            <rect x="3885" y="995.939" width="13.981" height="55.814"/>
            <rect x="4094.71" y="995.939" width="13.981" height="55.814"/>
            <rect x="3885" y="1051.75" width="13.981" height="13.953" style="fill:rgb(237,59,104);"/>
            <rect x="4094.71" y="1051.75" width="13.981" height="13.953" style="fill:rgb(237,59,104);"/>
            </g></g></g></svg>