<svg width="100%" height="100%" viewBox="0 0 1280 1280" version="1.1" xmlns="http://www.w3.org/2000/svg" xmlns:xlink="http://www.w3.org/1999/xlink" xml:space="preserve" xmlns:serif="http://www.serif.com/" style="fill-rule:evenodd;clip-rule:evenodd;stroke-linejoin:round;stroke-miterlimit:2;"><g transform="matrix(2,0,0,2,0,0)"><g id="background" transform="matrix(20,0,0,20,0,0)"><rect x="0" y="0" width="32" height="32" style="fill:#72736F;"/></g>
<g id="meshs" transform="matrix(18.4802,0,0,19.5673,-0.484754,14.4742)"><g id="eule" transform="matrix(0.054112,0,0,0.0511058,0.026231,-0.739717)">
            <path id="color1" serif:id="color" d="M220,640L220,500L200,500L200,220L160,220L160,160L140,160L140,100L180,100L180,120L460,120L460,100L500,100L500,160L480,160L480,240L460,240L460,560L400,560L400,580L340,580L340,640L220,640Z" style="fill:#DBF227;"/>
            <path d="M460,240L440,240L440,220L400,220L400,240L380,240L380,260L360,260L360,280L340,280L340,260L320,260L320,240L300,240L300,220L260,220L260,240L240,240L240,260L220,260L220,420L240,420L240,440L260,440L260,460L300,460L300,440L320,440L320,420L340,420L340,400L360,400L360,420L380,420L380,440L400,440L400,460L440,460L440,440L460,440L460,240Z" style="fill-opacity:0.27;"/>
            <path d="M320,360L340,360L340,340L360,340L360,360L380,360L380,400L360,400L360,440L340,440L340,400L320,400L320,360Z" style="fill:rgb(185,94,111);"/>
            <path d="M200,640L200,500L180,500L180,220L160,220L160,160L140,160L140,80L180,80L180,100L240,100L240,120L280,120L280,100L380,100L380,120L420,120L420,100L460,100L460,80L520,80L520,160L500,160L500,240L480,240L480,540L460,540L460,560L420,560L420,600L360,600L360,640L340,640L340,580L400,580L400,560L420,560L420,540L460,540L460,240L480,240L480,160L500,160L500,100L480,100L480,120L420,120L420,140L380,140L380,120L280,120L280,140L240,140L240,120L180,120L180,100L160,100L160,160L180,160L180,220L200,220L200,500L220,500L220,640L200,640Z"/>
            <g transform="matrix(1,0,0,1,-1.13687e-13,-20)">
                <path d="M300,300L300,320L320,320L320,380L300,380L300,400L260,400L260,380L240,380L240,320L260,320L260,300L300,300Z" style="fill:white;"/>
            </g>
            <g transform="matrix(1,0,0,1,140,-20)">
                <path d="M300,300L300,320L320,320L320,380L300,380L300,400L260,400L260,380L240,380L240,320L260,320L260,300L300,300Z" style="fill:white;"/>
            </g>
            <rect x="280" y="320" width="20" height="20"/>
            <g transform="matrix(1,0,0,1,140,2.85993e-13)">
                <rect x="280" y="320" width="20" height="20"/>
            </g>
        </g></g><g id="accessoiries" transform="matrix(22.5744,0,0,15.0513,-20.6845,82.9368)">null</g>
		<g transform="matrix(1.55556,0,0,1.38272,-4746.67,-2484.46)">
			<g id="bart"></g>
        </g>
	<g id="glases" transform="matrix(14.9706,0,0,15,90.1646,180)"><g id="nounsbrille" transform="matrix(1.05263,0,0,1,-0.314999,-1)">
                <g>
                    <rect x="21.23" y="7.667" width="3.807" height="6.667" style="fill:rgb(1,0,0);"/>
                    <rect x="19.961" y="7.667" width="1.269" height="6.667" style="fill:white;"/>
                </g>
                <g transform="matrix(1,0,0,1,-8.03234,0)">
                    <g transform="matrix(1.10647,0,0,1,-2.02289,0)">
                        <rect x="20.246" y="7.667" width="3.441" height="6.667" style="fill:rgb(1,0,0);"/>
                    </g>
                    <rect x="19.109" y="7.667" width="1.269" height="6.667" style="fill:white;"/>
                </g>
                <path id="_1" serif:id="1" d="M6,11.667L6,10.333L9.807,10.333L9.807,15.667L17.422,15.667L17.422,10.333L18.692,10.333L18.692,15.667L26.269,15.667L26.306,6.333L18.692,6.333L18.692,9L17.422,9L17.422,6.333L9.807,6.333L9.807,9L4.731,9L4.731,11.667L6,11.667ZM11.077,7.667L16.153,7.667L16.153,14.333L11.077,14.333L11.077,7.667ZM19.961,7.667L25.037,7.667L25.037,14.333L19.961,14.333L19.961,7.667Z" style="fill:#1621F2;"/>
            </g></g></g></svg>