<svg width="100%" height="100%" viewBox="0 0 1280 1280" version="1.1" xmlns="http://www.w3.org/2000/svg" xmlns:xlink="http://www.w3.org/1999/xlink" xml:space="preserve" xmlns:serif="http://www.serif.com/" style="fill-rule:evenodd;clip-rule:evenodd;stroke-linejoin:round;stroke-miterlimit:2;"><g transform="matrix(2,0,0,2,0,0)"><g id="background" transform="matrix(20,0,0,20,0,0)"><rect x="0" y="0" width="32" height="32" style="fill:#F2E3D5;"/></g>
<g id="meshs" transform="matrix(18.4802,0,0,19.5673,-0.484754,14.4742)"><g id="troll" transform="matrix(0.020779,0,0,0.0224,15.9274,18.3069)">
            <g id="color" transform="matrix(4.16667,0,0,4.16667,-10515.3,-8890.25)">
                <path d="M2540.01,2280.03L2477.51,2280.03L2477.51,2148.61L2452.51,2148.61L2452.51,2115.76L2440.01,2115.76L2440.01,2093.86L2477.51,2093.86L2477.51,2028.15L2490.01,2028.15L2490.01,2017.2L2615.01,2017.2L2615.01,2028.15L2627.51,2028.15L2627.51,2225.27L2615.01,2225.27L2615.01,2236.22L2540.01,2236.22L2540.01,2280.03Z" style="fill:#435922;"/>
            </g>
            <g transform="matrix(4.16667,0,0,4.16667,-10515.3,-8890.25)">
                <rect x="2477.51" y="2017.2" width="12.5" height="10.951"/>
            </g>
            <g transform="matrix(4.16667,0,0,4.16667,-10515.3,-8890.25)">
                <path d="M2490.01,2005.92L2615.01,2006.25L2615.01,2017.2L2490.01,2017.2L2490.01,2005.92Z"/>
            </g>
            <g transform="matrix(4.16667,0,0,4.16667,-10515.3,-8890.25)">
                <rect x="2627.51" y="2028.15" width="12.5" height="197.122"/>
            </g>
            <g transform="matrix(4.16667,0,0,4.16667,-10515.3,-8890.25)">
                <rect x="2615.01" y="2225.27" width="12.5" height="10.951"/>
            </g>
            <g transform="matrix(4.16667,0,0,4.16667,-10515.3,-8890.25)">
                <path d="M2552.51,2247.18L2552.51,2280.03L2540.01,2280.03L2540.01,2247.18L2527.51,2247.18L2527.51,2236.22L2615.01,2236.22L2615.01,2247.18L2552.51,2247.18Z"/>
            </g>
            <g transform="matrix(4.16667,0,0,4.16667,-10515.3,-8890.25)">
                <rect x="2440.01" y="2115.76" width="12.5" height="32.854"/>
            </g>
            <g transform="matrix(4.16667,0,0,4.16667,-10515.3,-8890.25)">
                <path d="M2477.51,2280.03L2465.01,2280.03L2465.01,2159.57L2452.51,2159.57L2452.51,2148.61L2477.51,2148.61L2477.51,2280.03Z"/>
            </g>
            <g transform="matrix(4.16667,0,0,4.16667,-10515.3,-8890.25)">
                <path d="M2427.51,2071.95L2440.01,2071.95L2440.01,2082.91L2465.01,2082.91L2465.01,2028.15L2477.51,2028.15L2477.51,2093.86L2440.01,2093.86L2440.01,2115.76L2427.51,2115.76L2427.51,2071.95Z"/>
            </g>
            <g transform="matrix(4.16667,0,0,4.16667,-10515.3,-8890.25)">
                <rect x="2502.51" y="2104.81" width="12.5" height="10.951" style="fill:rgb(253,213,64);"/>
            </g>
            <g transform="matrix(4.16667,0,0,4.16667,-10515.3,-8890.25)">
                <rect x="2565.01" y="2148.61" width="25" height="10.951"/>
            </g>
            <g transform="matrix(4.16667,0,0,4.16667,-10515.3,-8890.25)">
                <rect x="2540.01" y="2192.42" width="50" height="10.951"/>
            </g>
            <g transform="matrix(4.16667,0,0,4.16667,-10515.3,-8890.25)">
                <rect x="2515.01" y="2104.81" width="12.5" height="10.951"/>
            </g>
            <g transform="matrix(4.16667,0,0,4.16667,-10515.3,-8890.25)">
                <rect x="2602.51" y="2104.81" width="12.5" height="10.951" style="fill:rgb(253,213,64);"/>
            </g>
            <g transform="matrix(4.16667,0,0,4.16667,-10515.3,-8890.25)">
                <rect x="2615.01" y="2104.81" width="12.5" height="10.951"/>
            </g>
            <g transform="matrix(4.16667,0,0,4.16667,-10515.3,-8890.25)">
                <rect x="2502.51" y="2093.86" width="37.5" height="10.951"/>
            </g>
            <g transform="matrix(4.16667,0,0,4.16667,-10515.3,-8890.25)">
                <rect x="2602.51" y="2093.86" width="25" height="10.951"/>
            </g>
            <g transform="matrix(4.16667,0,0,4.16667,-10515.3,-8890.25)">
                <rect x="2527.51" y="2181.47" width="12.5" height="10.951"/>
            </g>
            <g transform="matrix(4.16667,0,0,4.16667,-10515.3,-8890.25)">
                <rect x="2590.01" y="2181.47" width="12.5" height="10.951"/>
            </g>
            <g transform="matrix(4.16667,0,0,4.16667,-10515.3,-8890.25)">
                <rect x="2515.01" y="2192.42" width="12.5" height="10.951"/>
            </g>
            <g transform="matrix(4.16667,0,0,4.16667,-10515.3,-8890.25)">
                <rect x="2502.51" y="2181.47" width="12.5" height="10.951"/>
            </g>
            <g transform="matrix(4.16667,0,0,4.16667,-10515.3,-8890.25)">
                <rect x="2602.51" y="2192.42" width="12.5" height="10.951"/>
            </g>
            <g transform="matrix(4.16667,0,0,4.16667,-10515.3,-8890.25)">
                <rect x="2527.51" y="2192.42" width="12.5" height="10.951" style="fill:white;"/>
            </g>
            <g transform="matrix(4.16667,0,0,4.16667,-10515.3,-8890.25)">
                <rect x="2590.01" y="2192.42" width="12.5" height="10.951" style="fill:white;"/>
            </g>
            <g transform="matrix(4.16667,0,0,4.16667,-10515.3,-8890.25)">
                <rect x="2615.01" y="2017.2" width="12.5" height="10.951"/>
            </g>
            <g transform="matrix(2.60417,0,0,2.28151,-765.25,-850.297)">
                <path d="M300,160L300,180L280,180L280,200L260,200L260,540L280,540L280,560L300,560L300,600L280,600L280,620L260,620L260,640L220,640L220,400L180,400L180,340L160,340L160,300L220,300L220,180L240,180L240,160L300,160Z" style="fill-opacity:0.24;"/>
            </g>
        </g></g><g id="accessoiries" transform="matrix(22.5744,0,0,15.0513,-20.6845,82.9368)"><g id="afrob" transform="matrix(0.0764357,0,0,0.109029,-315.683,-97.0446)">
            <path d="M4257.94,1071.1L4234.76,1071.1L4234.76,1058.92L4223.17,1058.92L4223.17,1046.73L4211.58,1046.73L4211.58,1034.54L4199.99,1034.54L4199.99,1022.35L4211.58,1022.35L4211.58,997.979L4199.99,997.979L4199.99,961.416L4223.17,961.416L4223.17,937.041L4234.76,937.041L4234.76,912.666L4246.35,912.666L4246.35,900.479L4257.94,900.479L4257.94,888.291L4304.31,888.291L4304.31,876.104L4339.08,876.104L4339.08,888.291L4350.67,888.291L4350.67,876.104L4362.26,876.104L4362.26,888.291L4408.63,888.291L4408.63,900.479L4431.81,900.479L4431.81,924.854L4439.99,924.854L4439.99,937.041L4449.19,937.041L4449.19,949.229L4437.6,949.229L4437.6,961.416L4443.4,961.416L4443.4,1010.17L4431.81,1010.17L4431.81,1022.35L4443.4,1022.35L4443.4,1034.54L4431.81,1034.54L4431.81,1046.73L4420.22,1046.73L4420.22,985.791L4397.04,985.791L4397.04,973.604L4327.49,973.604L4327.49,985.791L4315.9,985.791L4315.9,973.604L4292.72,973.604L4292.72,997.979L4269.54,997.979L4269.54,1034.54L4257.94,1034.54L4257.94,1071.1ZM4292.72,997.979L4304.31,997.979L4304.31,1010.17L4292.72,1010.17L4292.72,997.979Z"/>
        </g></g>
		<g transform="matrix(1.55556,0,0,1.38272,-4746.67,-2484.46)">
			<g id="bart"></g>
        </g>
	<g id="glases" transform="matrix(14.9706,0,0,15,90.1646,180)"><g id="checker" transform="matrix(1.14094,0,0,1,-1.31784,-2)">
            <path d="M7.585,10L23.978,10L23.978,11.333L22.807,11.333L22.807,12.667L21.636,12.667L21.636,14L18.124,14L18.124,12.667L16.953,12.667L16.953,11.333L15.782,11.333L15.782,12.667L14.611,12.667L14.611,14L11.098,14L11.098,12.667L9.927,12.667L9.927,11.333L7.585,11.333L7.585,10Z"/>
            <g transform="matrix(1.21429,0,0,0.666667,-2.71429,4)">
                <rect x="13.304" y="11" width="0.964" height="2" style="fill:white;"/>
            </g>
            <g transform="matrix(1.21429,0,0,0.666667,-5.14286,4)">
                <rect x="21.089" y="11" width="0.964" height="2" style="fill:white;"/>
            </g>
            </g></g></g></svg>