<svg width="100%" height="100%" viewBox="0 0 1280 1280" version="1.1" xmlns="http://www.w3.org/2000/svg" xmlns:xlink="http://www.w3.org/1999/xlink" xml:space="preserve" xmlns:serif="http://www.serif.com/" style="fill-rule:evenodd;clip-rule:evenodd;stroke-linejoin:round;stroke-miterlimit:2;"><g transform="matrix(2,0,0,2,0,0)"><g id="background" transform="matrix(20,0,0,20,0,0)"><rect x="0" y="0" width="32" height="32" style="fill:#72736F;"/></g>
<g id="meshs" transform="matrix(18.4802,0,0,19.5673,-0.484754,14.4742)"><g id="male-happy" transform="matrix(1.08224,0,0,1.02212,1.10847,-0.739717)">
            <path id="color3" serif:id="color" d="M10,32L10,19L9,19L9,16L10,16L10,9L11,9L11,8L21,8L21,9L22,9L22,27L21,27L21,28L20,28L20,29L16,29L16,32L10,32Z" style="fill:#E9CEC3;"/>
            <path d="M9,32L9,20L8,20L8,15L9,15L9,9L10,9L10,8L11,8L11,7L21,7L21,8L22,8L22,9L23,9L23,27L22,27L22,28L21,28L21,29L20,29L20,30L17,30L17,32L16,32L16,30L14,30L14,29L13,29L13,28L12,28L12,27L13,27L13,28L14,28L14,29L20,29L20,28L21,28L21,27L22,27L22,9L21,9L21,8L11,8L11,9L10,9L10,16L9,16L9,19L10,19.019L10,32L9,32Z"/>
            <g transform="matrix(1.25,0,0,1,-5,0)">
                <path d="M20,24L20,25L16,25L16,24L16.8,24L16.8,26L19.2,26L19.2,24L20,24Z" style="fill:rgb(5,0,0);"/>
            </g>
            <rect x="17" y="20" width="3" height="1"/>
            <g transform="matrix(0.923077,0,0,1,2,0)">
                <rect x="13" y="16" width="1.083" height="1"/>
            </g>
            <g transform="matrix(0.923077,0,0,1,9,0)">
                <rect x="13" y="16" width="1.083" height="1"/>
            </g>
            <g transform="matrix(1,0,0,1,1,0)">
                <rect x="12" y="16" width="1" height="1" style="fill:white;"/>
            </g>
            <g transform="matrix(3,0,0,1,-20,8)">
                <rect x="12" y="16" width="1" height="1" style="fill:white;"/>
            </g>
            <g transform="matrix(1,0,0,1,8,0)">
                <rect x="12" y="16" width="1" height="1" style="fill:white;"/>
            </g>
            <g transform="matrix(1,0,0,1,1,0)">
                <rect x="12" y="15" width="2" height="1" style="fill-opacity:0.46;"/>
            </g>
            <g transform="matrix(1,0,0,1,8,0)">
                <rect x="12" y="15" width="2" height="1" style="fill-opacity:0.46;"/>
            </g>
            <g transform="matrix(0.05,0,0,0.05,-1,0)">
                <path d="M300,160L300,180L280,180L280,200L260,200L260,520L280,520L280,540L300,540L300,560L320,560L320,580L280,580L280,600L260,600L260,640L220,640L220,380L200,380L200,320L220,320L220,180L240,180L240,160L300,160Z" style="fill-opacity:0.15;"/>
            </g>
        </g></g><g id="accessoiries" transform="matrix(22.5744,0,0,15.0513,-20.6845,82.9368)"><g id="cap-backwards" transform="matrix(0.0207914,0,0,0.0311836,18.3028,4.6211)">
            <g id="color11" serif:id="color" transform="matrix(4.16667,0,0,4.16667,-16702.7,-5421.58)">
                <path d="M3910.23,1340.81L4053.4,1340.81L4053.4,1289.68L4043.18,1289.68L4043.18,1279.45L3930.68,1279.45L3930.68,1289.68L3910.23,1289.68L3910.23,1340.81Z" style="fill:#FF1425;"/>
            </g>
            <g transform="matrix(4.16667,0,0,4.16667,-16702.7,-5421.58)">
                <path d="M3910.23,1340.81L4053.4,1340.81L4053.4,1289.68L4043.18,1289.68L4043.18,1279.45L4053.4,1279.45L4053.4,1289.68L4063.63,1289.68L4063.63,1351.04L3838.64,1351.04L3838.64,1340.81L3900,1340.81L3900,1290.02L3910.23,1289.68L3910.23,1340.81ZM3930.68,1269.23L4043.18,1269.23L4043.18,1279.45L3930.68,1279.45L3930.68,1289.68L3910.23,1289.68L3910.23,1279.45L3930.68,1279.45L3930.68,1269.23Z"/>
            </g>
            <g transform="matrix(4.16667,0,0,4.16667,-16915.8,-5421.58)">
                <rect x="4002.27" y="1310.13" width="10.227" height="10.227" style="fill:white;"/>
            </g>
            <g transform="matrix(4.16667,0,0,4.16667,-16915.8,-5421.58)">
                <rect x="3992.04" y="1320.36" width="10.227" height="10.227" style="fill:white;"/>
            </g>
            <g transform="matrix(4.16667,0,0,4.16667,-16915.8,-5421.58)">
                <rect x="3981.82" y="1310.13" width="10.227" height="10.227" style="fill:white;"/>
            </g>
        </g></g>
		<g transform="matrix(1.55556,0,0,1.38272,-4746.67,-2484.46)">
			<g id="bart"></g>
        </g>
	<g id="glases" transform="matrix(14.9706,0,0,15,90.1646,180)"><g id="party" transform="matrix(1.05263,0,0,1,-0.314999,-1)">
                <path d="M6,11.667L4.731,11.667L4.731,9L9.807,9L9.807,6.333L17.422,6.333L17.422,9L18.692,9L18.692,6.333L26.306,6.333L26.306,15.667L18.692,15.667L18.692,10.333L17.422,10.333L17.422,15.667L9.807,15.667L9.807,10.333L6,10.333L6,11.667ZM11.077,13L16.153,13L16.153,14.333L11.077,14.333L11.077,13ZM19.961,13L25.037,13L25.037,14.333L19.961,14.333L19.961,13ZM11.077,10.333L16.153,10.333L16.153,11.667L11.077,11.667L11.077,10.333ZM19.961,10.333L25.037,10.333L25.037,11.667L19.961,11.667L19.961,10.333ZM11.077,7.667L16.153,7.667L16.153,9L11.077,9L11.077,7.667ZM19.961,7.667L25.037,7.667L25.037,9L19.961,9L19.961,7.667Z" style="fill:#042940;"/>
            </g></g></g></svg>