<svg width="757" height="758" viewBox="0 0 757 758" fill="none" xmlns="http://www.w3.org/2000/svg">
<path d="M757 0H0V757H757V0Z" fill="#F2E3D5"/>
<path fill-rule="evenodd" clip-rule="evenodd" d="M260.219 757.004V449.47H212.906V354.845H260.219V212.906H283.875V189.25H520.438V212.906H544.094V638.722H520.438V662.378H402.156V757.004H260.219Z" fill="#9DBF54"/>
<path fill-rule="evenodd" clip-rule="evenodd" d="M331.187 212.906V615.065H354.844V638.721H378.5V686.034H331.187V757.003H260.219V449.47H212.906V354.845H260.219V212.906H331.187Z" fill="black" fill-opacity="0.14"/>
<path fill-rule="evenodd" clip-rule="evenodd" d="M236.563 757.004V473.127H189.25V331.188H236.563V189.25H260.219V165.594H544.094V189.25H567.75V638.722H544.094V662.378H520.438V686.035H425.813V757.004H402.156V686.035H331.188V662.378H307.531V638.722H331.188V662.378H520.438V638.722H544.094V236.563H520.438V212.906H496.781V236.563H473.125V212.906H449.469V236.563H425.813V212.906H402.156V236.563H378.5V212.906H354.844V236.563H331.188V212.906H307.531V236.563H283.875V212.906H260.219V378.501H236.563V354.845H212.906V449.47H260.219V757.004H236.563Z" fill="black"/>
<path fill-rule="evenodd" clip-rule="evenodd" d="M260.219 662.375V686.032H236.562V709.688H212.906V638.719H236.562V662.375H260.219Z" fill="#F4F360"/>
<path d="M496.781 567.75H378.5V591.406H496.781V567.75Z" fill="#050000"/>
<path d="M496.781 473.125H425.813V496.781H496.781V473.125Z" fill="black"/>
<path d="M378.493 378.5H354.844V401.281H378.493V378.5Z" fill="black"/>
<path d="M544.086 378.5H520.438V401.281H544.086V378.5Z" fill="black"/>
<path d="M354.844 378.5H331.188V401.281H354.844V378.5Z" fill="white"/>
<path d="M520.437 378.5H496.781V401.281H520.437V378.5Z" fill="white"/>
<path d="M544.094 354.844H331.188V378.5H544.094V354.844Z" fill="black"/>
<path d="M496.781 378.5H378.5V402.156H496.781V378.5Z" fill="black" fill-opacity="0.31"/>
<path fill-rule="evenodd" clip-rule="evenodd" d="M236.609 272.045H567.783V153.773H544.143V130.109H283.912V153.773H236.609V272.045Z" fill="#FF1425"/>
<path fill-rule="evenodd" clip-rule="evenodd" d="M236.616 272.029H567.79V153.757H544.15V130.094H567.79V153.757H591.454V272.029H709.725V295.693H212.952V154.544L236.616 153.757V272.029ZM283.92 106.453H544.15V130.094H283.92V153.757H236.616V130.094H283.92V106.453Z" fill="black"/>
<path d="M473.172 201.078H449.515V224.735H473.172V201.078Z" fill="white"/>
<path d="M449.515 224.734H425.859V248.391H449.515V224.734Z" fill="white"/>
<path d="M425.859 201.078H402.203V224.735H425.859V201.078Z" fill="white"/>
<path fill-rule="evenodd" clip-rule="evenodd" d="M236.562 354.844H567.752V378.494H544.094V402.162H520.436V425.812H449.483V402.162H425.825V378.494H402.167V402.162H378.509V425.812H307.536V402.162H283.878V378.494H236.562V354.844Z" fill="black"/>
<path d="M378.493 378.5H354.844V402.156H378.493V378.5Z" fill="white"/>
<path d="M520.43 378.5H496.781V402.156H520.43V378.5Z" fill="white"/>
</svg>
